<svg id="visual" viewBox="0 0 3800 900" width="3800" height="900" xmlns="http://www.w3.org/2000/svg" xmlns:xlink="http://www.w3.org/1999/xlink" version="1.1"><rect x="0" y="0" width="3800" height="900" fill="#D4BFF9"></rect><path d="M0 640L90.5 632.7C181 625.3 362 610.7 543 610.2C724 609.7 905 623.3 1086 620.8C1267 618.3 1448 599.7 1628.8 584.8C1809.7 570 1990.3 559 2171.2 571.8C2352 584.7 2533 621.3 2714 640.3C2895 659.3 3076 660.7 3257 655.5C3438 650.3 3619 638.7 3709.5 632.8L3800 627L3800 901L3709.5 901C3619 901 3438 901 3257 901C3076 901 2895 901 2714 901C2533 901 2352 901 2171.2 901C1990.3 901 1809.7 901 1628.8 901C1448 901 1267 901 1086 901C905 901 724 901 543 901C362 901 181 901 90.5 901L0 901Z" fill="#6600ff"></path><path d="M0 640L90.5 640.5C181 641 362 642 543 642.8C724 643.7 905 644.3 1086 641.5C1267 638.7 1448 632.3 1628.8 643.5C1809.7 654.7 1990.3 683.3 2171.2 699C2352 714.7 2533 717.3 2714 709.2C2895 701 3076 682 3257 670.2C3438 658.3 3619 653.7 3709.5 651.3L3800 649L3800 901L3709.5 901C3619 901 3438 901 3257 901C3076 901 2895 901 2714 901C2533 901 2352 901 2171.2 901C1990.3 901 1809.7 901 1628.8 901C1448 901 1267 901 1086 901C905 901 724 901 543 901C362 901 181 901 90.5 901L0 901Z" fill="#9c58ff"></path><path d="M0 718L90.5 711.3C181 704.7 362 691.3 543 686C724 680.7 905 683.3 1086 693C1267 702.7 1448 719.3 1628.8 725.5C1809.7 731.7 1990.3 727.3 2171.2 717.2C2352 707 2533 691 2714 687.3C2895 683.7 3076 692.3 3257 696.8C3438 701.3 3619 701.7 3709.5 701.8L3800 702L3800 901L3709.5 901C3619 901 3438 901 3257 901C3076 901 2895 901 2714 901C2533 901 2352 901 2171.2 901C1990.3 901 1809.7 901 1628.8 901C1448 901 1267 901 1086 901C905 901 724 901 543 901C362 901 181 901 90.5 901L0 901Z" fill="#c391ff"></path><path d="M0 778L90.5 772.8C181 767.7 362 757.3 543 752.3C724 747.3 905 747.7 1086 744.2C1267 740.7 1448 733.3 1628.8 741.5C1809.7 749.7 1990.3 773.3 2171.2 783C2352 792.7 2533 788.3 2714 787.5C2895 786.7 3076 789.3 3257 780.2C3438 771 3619 750 3709.5 739.5L3800 729L3800 901L3709.5 901C3619 901 3438 901 3257 901C3076 901 2895 901 2714 901C2533 901 2352 901 2171.2 901C1990.3 901 1809.7 901 1628.8 901C1448 901 1267 901 1086 901C905 901 724 901 543 901C362 901 181 901 90.5 901L0 901Z" fill="#e3c8ff"></path><path d="M0 837L90.5 836.7C181 836.3 362 835.7 543 835.7C724 835.7 905 836.3 1086 828.7C1267 821 1448 805 1628.8 804.5C1809.7 804 1990.3 819 2171.2 819C2352 819 2533 804 2714 800.7C2895 797.3 3076 805.7 3257 812.8C3438 820 3619 826 3709.5 829L3800 832L3800 901L3709.5 901C3619 901 3438 901 3257 901C3076 901 2895 901 2714 901C2533 901 2352 901 2171.2 901C1990.3 901 1809.7 901 1628.8 901C1448 901 1267 901 1086 901C905 901 724 901 543 901C362 901 181 901 90.5 901L0 901Z" fill="#ffffff"></path></svg>