<svg id="visual" viewBox="0 0 3800 900" width="3800" height="800" xmlns="http://www.w3.org/2000/svg" xmlns:xlink="http://www.w3.org/1999/xlink" version="1.1"><rect x="0" y="0" width="3800" height="900" fill="#D4BFF9"></rect><path d="M0 405L27.5 426.7C55 448.3 110 491.7 165 512.2C220 532.7 275 530.3 330.2 509.3C385.3 488.3 440.7 448.7 495.8 426.2C551 403.7 606 398.3 661 434.5C716 470.7 771 548.3 826 543.3C881 538.3 936 450.7 991.2 458.7C1046.3 466.7 1101.7 570.3 1156.8 620C1212 669.7 1267 665.3 1322 617C1377 568.7 1432 476.3 1487 478.5C1542 480.7 1597 577.3 1652 614.3C1707 651.3 1762 628.7 1817.2 609.2C1872.3 589.7 1927.7 573.3 1982.8 556.8C2038 540.3 2093 523.7 2148 536.5C2203 549.3 2258 591.7 2313 571.8C2368 552 2423 470 2478 468.2C2533 466.3 2588 544.7 2643.2 576.2C2698.3 607.7 2753.7 592.3 2808.8 581.7C2864 571 2919 565 2974 554.2C3029 543.3 3084 527.7 3139 547.5C3194 567.3 3249 622.7 3304.2 643.7C3359.3 664.7 3414.7 651.3 3469.8 629.3C3525 607.3 3580 576.7 3635 553C3690 529.3 3745 512.7 3772.5 504.3L3800 496L3800 901L3772.5 901C3745 901 3690 901 3635 901C3580 901 3525 901 3469.8 901C3414.7 901 3359.3 901 3304.2 901C3249 901 3194 901 3139 901C3084 901 3029 901 2974 901C2919 901 2864 901 2808.8 901C2753.7 901 2698.3 901 2643.2 901C2588 901 2533 901 2478 901C2423 901 2368 901 2313 901C2258 901 2203 901 2148 901C2093 901 2038 901 1982.8 901C1927.7 901 1872.3 901 1817.2 901C1762 901 1707 901 1652 901C1597 901 1542 901 1487 901C1432 901 1377 901 1322 901C1267 901 1212 901 1156.8 901C1101.7 901 1046.3 901 991.2 901C936 901 881 901 826 901C771 901 716 901 661 901C606 901 551 901 495.8 901C440.7 901 385.3 901 330.2 901C275 901 220 901 165 901C110 901 55 901 27.5 901L0 901Z" fill="#6600ff"></path><path d="M0 551L27.5 565.2C55 579.3 110 607.7 165 620.7C220 633.7 275 631.3 330.2 639.2C385.3 647 440.7 665 495.8 665.5C551 666 606 649 661 603.8C716 558.7 771 485.3 826 468C881 450.7 936 489.3 991.2 522.7C1046.3 556 1101.7 584 1156.8 589.2C1212 594.3 1267 576.7 1322 589C1377 601.3 1432 643.7 1487 637C1542 630.3 1597 574.7 1652 530.8C1707 487 1762 455 1817.2 455.3C1872.3 455.7 1927.7 488.3 1982.8 501.5C2038 514.7 2093 508.3 2148 510.7C2203 513 2258 524 2313 537C2368 550 2423 565 2478 556.5C2533 548 2588 516 2643.2 521C2698.3 526 2753.7 568 2808.8 588C2864 608 2919 606 2974 575.2C3029 544.3 3084 484.7 3139 471.3C3194 458 3249 491 3304.2 523.2C3359.3 555.3 3414.7 586.7 3469.8 597.5C3525 608.3 3580 598.7 3635 575.7C3690 552.7 3745 516.3 3772.5 498.2L3800 480L3800 901L3772.5 901C3745 901 3690 901 3635 901C3580 901 3525 901 3469.8 901C3414.7 901 3359.3 901 3304.2 901C3249 901 3194 901 3139 901C3084 901 3029 901 2974 901C2919 901 2864 901 2808.8 901C2753.7 901 2698.3 901 2643.2 901C2588 901 2533 901 2478 901C2423 901 2368 901 2313 901C2258 901 2203 901 2148 901C2093 901 2038 901 1982.8 901C1927.7 901 1872.3 901 1817.2 901C1762 901 1707 901 1652 901C1597 901 1542 901 1487 901C1432 901 1377 901 1322 901C1267 901 1212 901 1156.8 901C1101.7 901 1046.3 901 991.2 901C936 901 881 901 826 901C771 901 716 901 661 901C606 901 551 901 495.8 901C440.7 901 385.3 901 330.2 901C275 901 220 901 165 901C110 901 55 901 27.5 901L0 901Z" fill="#883dff"></path><path d="M0 529L27.5 539C55 549 110 569 165 600.5C220 632 275 675 330.2 681C385.3 687 440.7 656 495.8 657.8C551 659.7 606 694.3 661 711.3C716 728.3 771 727.7 826 688.7C881 649.7 936 572.3 991.2 568.2C1046.3 564 1101.7 633 1156.8 655.7C1212 678.3 1267 654.7 1322 630.7C1377 606.7 1432 582.3 1487 580.5C1542 578.7 1597 599.3 1652 626C1707 652.7 1762 685.3 1817.2 666.2C1872.3 647 1927.7 576 1982.8 565C2038 554 2093 603 2148 638C2203 673 2258 694 2313 667.2C2368 640.3 2423 565.7 2478 534.3C2533 503 2588 515 2643.2 516.2C2698.3 517.3 2753.7 507.7 2808.8 516C2864 524.3 2919 550.7 2974 574.5C3029 598.3 3084 619.7 3139 608.5C3194 597.3 3249 553.7 3304.2 562.3C3359.3 571 3414.7 632 3469.8 636.7C3525 641.3 3580 589.7 3635 582.8C3690 576 3745 614 3772.5 633L3800 652L3800 901L3772.5 901C3745 901 3690 901 3635 901C3580 901 3525 901 3469.8 901C3414.7 901 3359.3 901 3304.2 901C3249 901 3194 901 3139 901C3084 901 3029 901 2974 901C2919 901 2864 901 2808.8 901C2753.7 901 2698.3 901 2643.2 901C2588 901 2533 901 2478 901C2423 901 2368 901 2313 901C2258 901 2203 901 2148 901C2093 901 2038 901 1982.8 901C1927.7 901 1872.3 901 1817.2 901C1762 901 1707 901 1652 901C1597 901 1542 901 1487 901C1432 901 1377 901 1322 901C1267 901 1212 901 1156.8 901C1101.7 901 1046.3 901 991.2 901C936 901 881 901 826 901C771 901 716 901 661 901C606 901 551 901 495.8 901C440.7 901 385.3 901 330.2 901C275 901 220 901 165 901C110 901 55 901 27.5 901L0 901Z" fill="#a261ff"></path><path d="M0 653L27.5 643.7C55 634.3 110 615.7 165 634.2C220 652.7 275 708.3 330.2 720.2C385.3 732 440.7 700 495.8 673.5C551 647 606 626 661 628.5C716 631 771 657 826 666.8C881 676.7 936 670.3 991.2 665.5C1046.3 660.7 1101.7 657.3 1156.8 641.7C1212 626 1267 598 1322 610.2C1377 622.3 1432 674.7 1487 702.2C1542 729.7 1597 732.3 1652 712.7C1707 693 1762 651 1817.2 635.5C1872.3 620 1927.7 631 1982.8 642.3C2038 653.7 2093 665.3 2148 669.5C2203 673.7 2258 670.3 2313 647C2368 623.7 2423 580.3 2478 568.8C2533 557.3 2588 577.7 2643.2 582.7C2698.3 587.7 2753.7 577.3 2808.8 583.2C2864 589 2919 611 2974 620.2C3029 629.3 3084 625.7 3139 617.3C3194 609 3249 596 3304.2 613.5C3359.3 631 3414.7 679 3469.8 705.8C3525 732.7 3580 738.3 3635 732C3690 725.7 3745 707.3 3772.5 698.2L3800 689L3800 901L3772.5 901C3745 901 3690 901 3635 901C3580 901 3525 901 3469.8 901C3414.7 901 3359.3 901 3304.2 901C3249 901 3194 901 3139 901C3084 901 3029 901 2974 901C2919 901 2864 901 2808.8 901C2753.7 901 2698.3 901 2643.2 901C2588 901 2533 901 2478 901C2423 901 2368 901 2313 901C2258 901 2203 901 2148 901C2093 901 2038 901 1982.8 901C1927.7 901 1872.3 901 1817.2 901C1762 901 1707 901 1652 901C1597 901 1542 901 1487 901C1432 901 1377 901 1322 901C1267 901 1212 901 1156.8 901C1101.7 901 1046.3 901 991.2 901C936 901 881 901 826 901C771 901 716 901 661 901C606 901 551 901 495.8 901C440.7 901 385.3 901 330.2 901C275 901 220 901 165 901C110 901 55 901 27.5 901L0 901Z" fill="#b981ff"></path><path d="M0 705L27.5 709.2C55 713.3 110 721.7 165 718.8C220 716 275 702 330.2 693C385.3 684 440.7 680 495.8 691.3C551 702.7 606 729.3 661 747.7C716 766 771 776 826 760.7C881 745.3 936 704.7 991.2 676.2C1046.3 647.7 1101.7 631.3 1156.8 633.8C1212 636.3 1267 657.7 1322 673C1377 688.3 1432 697.7 1487 686.8C1542 676 1597 645 1652 640.2C1707 635.3 1762 656.7 1817.2 673.7C1872.3 690.7 1927.7 703.3 1982.8 709.5C2038 715.7 2093 715.3 2148 704.2C2203 693 2258 671 2313 654.8C2368 638.7 2423 628.3 2478 639.7C2533 651 2588 684 2643.2 680.2C2698.3 676.3 2753.7 635.7 2808.8 640.2C2864 644.7 2919 694.3 2974 719C3029 743.7 3084 743.3 3139 718.2C3194 693 3249 643 3304.2 645.3C3359.3 647.7 3414.7 702.3 3469.8 711.7C3525 721 3580 685 3635 689.5C3690 694 3745 739 3772.5 761.5L3800 784L3800 901L3772.5 901C3745 901 3690 901 3635 901C3580 901 3525 901 3469.8 901C3414.7 901 3359.3 901 3304.2 901C3249 901 3194 901 3139 901C3084 901 3029 901 2974 901C2919 901 2864 901 2808.8 901C2753.7 901 2698.3 901 2643.2 901C2588 901 2533 901 2478 901C2423 901 2368 901 2313 901C2258 901 2203 901 2148 901C2093 901 2038 901 1982.8 901C1927.7 901 1872.3 901 1817.2 901C1762 901 1707 901 1652 901C1597 901 1542 901 1487 901C1432 901 1377 901 1322 901C1267 901 1212 901 1156.8 901C1101.7 901 1046.3 901 991.2 901C936 901 881 901 826 901C771 901 716 901 661 901C606 901 551 901 495.8 901C440.7 901 385.3 901 330.2 901C275 901 220 901 165 901C110 901 55 901 27.5 901L0 901Z" fill="#cda1ff"></path><path d="M0 664L27.5 665.2C55 666.3 110 668.7 165 684C220 699.3 275 727.7 330.2 751.3C385.3 775 440.7 794 495.8 799.2C551 804.3 606 795.7 661 785.8C716 776 771 765 826 753C881 741 936 728 991.2 725.2C1046.3 722.3 1101.7 729.7 1156.8 720.7C1212 711.7 1267 686.3 1322 678.7C1377 671 1432 681 1487 695.8C1542 710.7 1597 730.3 1652 738.8C1707 747.3 1762 744.7 1817.2 753.8C1872.3 763 1927.7 784 1982.8 769.7C2038 755.3 2093 705.7 2148 693.3C2203 681 2258 706 2313 727.3C2368 748.7 2423 766.3 2478 755.5C2533 744.7 2588 705.3 2643.2 686.3C2698.3 667.3 2753.7 668.7 2808.8 673.8C2864 679 2919 688 2974 689.2C3029 690.3 3084 683.7 3139 677.2C3194 670.7 3249 664.3 3304.2 673.5C3359.3 682.7 3414.7 707.3 3469.8 723C3525 738.7 3580 745.3 3635 735.2C3690 725 3745 698 3772.5 684.5L3800 671L3800 901L3772.5 901C3745 901 3690 901 3635 901C3580 901 3525 901 3469.8 901C3414.7 901 3359.3 901 3304.2 901C3249 901 3194 901 3139 901C3084 901 3029 901 2974 901C2919 901 2864 901 2808.8 901C2753.7 901 2698.3 901 2643.2 901C2588 901 2533 901 2478 901C2423 901 2368 901 2313 901C2258 901 2203 901 2148 901C2093 901 2038 901 1982.8 901C1927.7 901 1872.3 901 1817.2 901C1762 901 1707 901 1652 901C1597 901 1542 901 1487 901C1432 901 1377 901 1322 901C1267 901 1212 901 1156.8 901C1101.7 901 1046.3 901 991.2 901C936 901 881 901 826 901C771 901 716 901 661 901C606 901 551 901 495.8 901C440.7 901 385.3 901 330.2 901C275 901 220 901 165 901C110 901 55 901 27.5 901L0 901Z" fill="#dfc0ff"></path><path d="M0 757L27.5 753.2C55 749.3 110 741.7 165 746.5C220 751.3 275 768.7 330.2 785.3C385.3 802 440.7 818 495.8 823.7C551 829.3 606 824.7 661 819.8C716 815 771 810 826 805.7C881 801.3 936 797.7 991.2 798C1046.3 798.3 1101.7 802.7 1156.8 791C1212 779.3 1267 751.7 1322 757.7C1377 763.7 1432 803.3 1487 820.3C1542 837.3 1597 831.7 1652 823.7C1707 815.7 1762 805.3 1817.2 791.5C1872.3 777.7 1927.7 760.3 1982.8 768.5C2038 776.7 2093 810.3 2148 827.7C2203 845 2258 846 2313 827.5C2368 809 2423 771 2478 751.5C2533 732 2588 731 2643.2 743.5C2698.3 756 2753.7 782 2808.8 795.3C2864 808.7 2919 809.3 2974 806.7C3029 804 3084 798 3139 794.5C3194 791 3249 790 3304.2 779C3359.3 768 3414.7 747 3469.8 737C3525 727 3580 728 3635 738C3690 748 3745 767 3772.5 776.5L3800 786L3800 901L3772.5 901C3745 901 3690 901 3635 901C3580 901 3525 901 3469.8 901C3414.7 901 3359.3 901 3304.2 901C3249 901 3194 901 3139 901C3084 901 3029 901 2974 901C2919 901 2864 901 2808.8 901C2753.7 901 2698.3 901 2643.2 901C2588 901 2533 901 2478 901C2423 901 2368 901 2313 901C2258 901 2203 901 2148 901C2093 901 2038 901 1982.8 901C1927.7 901 1872.3 901 1817.2 901C1762 901 1707 901 1652 901C1597 901 1542 901 1487 901C1432 901 1377 901 1322 901C1267 901 1212 901 1156.8 901C1101.7 901 1046.3 901 991.2 901C936 901 881 901 826 901C771 901 716 901 661 901C606 901 551 901 495.8 901C440.7 901 385.3 901 330.2 901C275 901 220 901 165 901C110 901 55 901 27.5 901L0 901Z" fill="#f0dfff"></path><path d="M0 801L27.5 809C55 817 110 833 165 832C220 831 275 813 330.2 815.2C385.3 817.3 440.7 839.7 495.8 853C551 866.3 606 870.7 661 857.2C716 843.7 771 812.3 826 812.3C881 812.3 936 843.7 991.2 843.7C1046.3 843.7 1101.7 812.3 1156.8 811.2C1212 810 1267 839 1322 851.8C1377 864.7 1432 861.3 1487 856.8C1542 852.3 1597 846.7 1652 839C1707 831.3 1762 821.7 1817.2 821.5C1872.3 821.3 1927.7 830.7 1982.8 826.5C2038 822.3 2093 804.7 2148 796.7C2203 788.7 2258 790.3 2313 802.8C2368 815.3 2423 838.7 2478 836.7C2533 834.7 2588 807.3 2643.2 797.3C2698.3 787.3 2753.7 794.7 2808.8 797.3C2864 800 2919 798 2974 797.5C3029 797 3084 798 3139 796.7C3194 795.3 3249 791.7 3304.2 795.5C3359.3 799.3 3414.7 810.7 3469.8 825.7C3525 840.7 3580 859.3 3635 859.8C3690 860.3 3745 842.7 3772.5 833.8L3800 825L3800 901L3772.5 901C3745 901 3690 901 3635 901C3580 901 3525 901 3469.8 901C3414.7 901 3359.3 901 3304.2 901C3249 901 3194 901 3139 901C3084 901 3029 901 2974 901C2919 901 2864 901 2808.8 901C2753.7 901 2698.3 901 2643.2 901C2588 901 2533 901 2478 901C2423 901 2368 901 2313 901C2258 901 2203 901 2148 901C2093 901 2038 901 1982.8 901C1927.7 901 1872.3 901 1817.2 901C1762 901 1707 901 1652 901C1597 901 1542 901 1487 901C1432 901 1377 901 1322 901C1267 901 1212 901 1156.8 901C1101.7 901 1046.3 901 991.2 901C936 901 881 901 826 901C771 901 716 901 661 901C606 901 551 901 495.8 901C440.7 901 385.3 901 330.2 901C275 901 220 901 165 901C110 901 55 901 27.5 901L0 901Z" fill="#ffffff"></path></svg>